<svg xmlns="http://www.w3.org/2000/svg" xmlns:xlink="http://www.w3.org/1999/xlink" viewBox="0 0 40 40"><defs><style>.cls-1{fill:none;}.cls-2{fill:url(#未命名的渐变_199);}.cls-3{fill:url(#未命名的渐变_220);}.cls-4{fill:url(#未命名的渐变_213);}.cls-5{fill:#fff;}.cls-6{fill:url(#未命名的渐变_213-2);}.cls-7{fill:url(#未命名的渐变_275);}</style><linearGradient id="未命名的渐变_199" x1="35.09" y1="7.51" x2="29.42" y2="7.47" gradientUnits="userSpaceOnUse"><stop offset="0" stop-color="#efcaba"/><stop offset="1" stop-color="#fd39e1"/></linearGradient><linearGradient id="未命名的渐变_220" x1="20" y1="4.67" x2="20" y2="29.27" gradientUnits="userSpaceOnUse"><stop offset="0.03" stop-color="#f2ff39"/><stop offset="0.18" stop-color="#f2cb39"/><stop offset="1" stop-color="#ff26f7"/></linearGradient><linearGradient id="未命名的渐变_213" x1="12.07" y1="14.2" x2="27.93" y2="14.2" gradientUnits="userSpaceOnUse"><stop offset="0" stop-color="#f24f39"/><stop offset="1" stop-color="#9a26f7"/></linearGradient><linearGradient id="未命名的渐变_213-2" x1="12.07" y1="21" x2="27.93" y2="21" xlink:href="#未命名的渐变_213"/><linearGradient id="未命名的渐变_275" x1="20" y1="25.25" x2="20" y2="39.5" gradientUnits="userSpaceOnUse"><stop offset="0" stop-color="#be3ced"/><stop offset="1" stop-color="#0002f7"/></linearGradient></defs><title>素材</title><g id="图层_2" data-name="图层 2"><g id="图层_1-2" data-name="图层 1"><rect class="cls-1" width="40" height="40"/><path class="cls-2" d="M31,4.48h.58A2.42,2.42,0,0,1,34,6.9V9.56a.92.92,0,0,1-.92.92H31a0,0,0,0,1,0,0v-6A0,0,0,0,1,31,4.48Z"/><path class="cls-3" d="M14.26,4.47H31a0,0,0,0,1,0,0v24a0,0,0,0,1,0,0H9a0,0,0,0,1,0,0V9.72A5.26,5.26,0,0,1,14.26,4.47Z"/><path class="cls-4" d="M26.8,15.33H13.2a1.13,1.13,0,1,1,0-2.27H26.8a1.13,1.13,0,1,1,0,2.27Z"/><path class="cls-5" d="M26.8,14.2H13.2a1.13,1.13,0,0,1,0-2.27H26.8a1.13,1.13,0,0,1,0,2.27Z"/><path class="cls-6" d="M26.8,22.13H13.2a1.13,1.13,0,0,1,0-2.27H26.8a1.13,1.13,0,0,1,0,2.27Z"/><path class="cls-5" d="M26.8,21H13.2a1.13,1.13,0,0,1,0-2.27H26.8a1.13,1.13,0,0,1,0,2.27Z"/><path class="cls-7" d="M35.32,27.33H4.68A1.68,1.68,0,0,0,3,29v6.13a2.19,2.19,0,0,0,2.19,2.19H34.81A2.19,2.19,0,0,0,37,35.14V29A1.68,1.68,0,0,0,35.32,27.33Zm-11.85,6H16.53a1,1,0,0,1,0-2h6.94a1,1,0,1,1,0,2Z"/></g></g></svg>