<svg xmlns="http://www.w3.org/2000/svg" xmlns:xlink="http://www.w3.org/1999/xlink" viewBox="0 0 40 40"><defs><style>.cls-1{fill:none;}.cls-2{fill:url(#未命名的渐变_58);}.cls-3{fill:url(#未命名的渐变_100);}.cls-4{fill:url(#未命名的渐变_42);}.cls-5{fill:url(#未命名的渐变_42-2);}.cls-6{fill:#fff;}.cls-7{fill:url(#未命名的渐变_42-3);}.cls-8{fill:url(#未命名的渐变_58-2);}</style><linearGradient id="未命名的渐变_58" x1="20" y1="26.67" x2="20" y2="34.82" gradientUnits="userSpaceOnUse"><stop offset="0" stop-color="#fff100"/><stop offset="0.4" stop-color="#d651f7"/><stop offset="0.68" stop-color="#6d29fb"/><stop offset="0.9" stop-color="#1f0cfe"/><stop offset="1" stop-color="blue"/></linearGradient><linearGradient id="未命名的渐变_100" x1="20" y1="6.36" x2="20" y2="33.03" gradientUnits="userSpaceOnUse"><stop offset="0" stop-color="#3bfff7"/><stop offset="1" stop-color="#0002f7"/></linearGradient><linearGradient id="未命名的渐变_42" x1="13.73" y1="13.66" x2="13.73" y2="24.35" gradientUnits="userSpaceOnUse"><stop offset="0" stop-color="#03dcf7"/><stop offset="1" stop-color="blue"/></linearGradient><linearGradient id="未命名的渐变_42-2" x1="23.17" y1="13.66" x2="23.17" y2="24.35" gradientTransform="matrix(-1, 0, 0, 1, 49.57, 0)" xlink:href="#未命名的渐变_42"/><linearGradient id="未命名的渐变_42-3" x1="22.17" y1="12.44" x2="19.11" y2="25.5" xlink:href="#未命名的渐变_42"/><linearGradient id="未命名的渐变_58-2" x1="20" y1="31.69" x2="20" y2="35.77" xlink:href="#未命名的渐变_58"/></defs><title>课件代码</title><g id="图层_2" data-name="图层 2"><g id="图层_1-2" data-name="图层 1"><rect class="cls-1" width="40" height="40"/><polygon class="cls-2" points="26 31.91 14 31.91 16 27.91 24 27.91 26 31.91"/><rect class="cls-3" x="5" y="7.91" width="30" height="20" rx="2" ry="2"/><path class="cls-4" d="M16,22.88a1,1,0,0,1-.65-.24L10.8,18.75a1,1,0,0,1-.11-1.41l3.89-4.57a1,1,0,1,1,1.52,1.3l-3.24,3.81,3.81,3.24A1,1,0,0,1,16,22.88Z"/><path class="cls-5" d="M24.11,22.88a1,1,0,0,0,.65-.24l4.57-3.89a1,1,0,0,0,.11-1.41l-3.89-4.57A1,1,0,1,0,24,14.07l3.24,3.81-3.81,3.24a1,1,0,0,0,.65,1.76Z"/><path class="cls-6" d="M14.67,23.14A1,1,0,0,1,14,22.9L9.45,19a1,1,0,0,1-.11-1.41L13.23,13a1,1,0,1,1,1.52,1.3l-3.24,3.81,3.81,3.24a1,1,0,0,1-.65,1.76Z"/><path class="cls-6" d="M25.33,23.14a1,1,0,0,1-.65-1.76l3.81-3.24-3.24-3.81A1,1,0,1,1,26.77,13l3.89,4.57A1,1,0,0,1,30.55,19L26,22.9A1,1,0,0,1,25.33,23.14Z"/><path class="cls-7" d="M19.39,23.49a1,1,0,0,1-.31,0,1,1,0,0,1-.64-1.26l3-9.16a1,1,0,0,1,1.9.62l-3,9.16A1,1,0,0,1,19.39,23.49Z"/><path class="cls-6" d="M18.56,23.14a1,1,0,0,1-.31,0,1,1,0,0,1-.64-1.26l3-9.16a1,1,0,0,1,1.9.62l-3,9.16A1,1,0,0,1,18.56,23.14Z"/><path class="cls-8" d="M12.31,32.31H27.69A1.31,1.31,0,0,1,29,33.62v0a.69.69,0,0,1-.69.69H11.69a.69.69,0,0,1-.69-.69v0a1.31,1.31,0,0,1,1.31-1.31Z"/></g></g></svg>