<svg xmlns="http://www.w3.org/2000/svg" viewBox="0 0 20 20"><defs><style>.cls-1,.cls-2,.cls-3{fill:none;}.cls-1,.cls-2{stroke:#fff;stroke-miterlimit:10;}.cls-1{stroke-width:1.5px;}.cls-2{stroke-width:1.37px;}</style></defs><title>新建文件</title><g id="图层_2" data-name="图层 2"><g id="图层_1-2" data-name="图层 1"><path class="cls-1" d="M10.33,16.71"/><path class="cls-2" d="M14.19,13.14"/><path d="M9.78,18.2H5.34a2.68,2.68,0,0,1-2.72-2.64V5.14a.68.68,0,0,1,.24-.52L7.05,1A.68.68,0,0,1,7.5.83h7a2.68,2.68,0,0,1,2.72,2.64v6.85a.68.68,0,1,1-1.37,0V3.47A1.32,1.32,0,0,0,14.54,2.2H7.75L4,5.45V15.56a1.32,1.32,0,0,0,1.35,1.27H9.78a.68.68,0,0,1,0,1.37Z"/><path d="M16.58,15.48H11.79a.68.68,0,0,1,0-1.37h4.79a.68.68,0,0,1,0,1.37Z"/><path d="M14.19,17.87a.68.68,0,0,1-.68-.68V12.4a.68.68,0,1,1,1.37,0v4.78A.68.68,0,0,1,14.19,17.87Z"/><polygon points="7.88 1.52 7.88 6.34 2.58 6.34 7.88 1.52"/><rect class="cls-3" width="20" height="20"/></g></g></svg>