<svg xmlns="http://www.w3.org/2000/svg" viewBox="0 0 20 20"><defs><style>.cls-1,.cls-2{fill:none;}.cls-1{stroke:#000;stroke-miterlimit:10;stroke-width:1.4px;}</style></defs><title>垃圾桶</title><g id="图层_2" data-name="图层 2"><g id="图层_1-2" data-name="图层 1"><path class="cls-1" d="M.42,11.5"/><path d="M16.34,19.47H3.85a.7.7,0,0,1-.7-.7V4.1a.7.7,0,1,1,1.4,0v14H15.64V4.1a.7.7,0,1,1,1.4,0V18.77A.7.7,0,0,1,16.34,19.47Z"/><path d="M18.83,4.45H1.35a.7.7,0,0,1,0-1.4H18.83a.7.7,0,1,1,0,1.4Z"/><path d="M7.8,15.79a.7.7,0,0,1-.7-.7V7.3a.7.7,0,1,1,1.4,0v7.79A.7.7,0,0,1,7.8,15.79Z"/><path d="M12.38,15.79a.7.7,0,0,1-.7-.7V7.3a.7.7,0,1,1,1.4,0v7.79A.7.7,0,0,1,12.38,15.79Z"/><path d="M10.09,3.83a.7.7,0,0,1-.7-.7V1.29a.7.7,0,1,1,1.4,0V3.12A.7.7,0,0,1,10.09,3.83Z"/><rect class="cls-2" width="20" height="20"/></g></g></svg>