<svg xmlns="http://www.w3.org/2000/svg" xmlns:xlink="http://www.w3.org/1999/xlink" viewBox="0 0 40 40"><defs><style>.cls-1{fill:none;}.cls-2{fill:url(#未命名的渐变_151);}.cls-3{fill:url(#未命名的渐变_100);}.cls-4{fill:url(#未命名的渐变_220);}.cls-5{fill:url(#未命名的渐变_100-2);}</style><linearGradient id="未命名的渐变_151" x1="20" y1="34.9" x2="20" y2="19.02" gradientUnits="userSpaceOnUse"><stop offset="0" stop-color="#fff100"/><stop offset="0.32" stop-color="#d651f7"/><stop offset="0.37" stop-color="#be51f7"/><stop offset="0.44" stop-color="#a251f7"/><stop offset="0.5" stop-color="#9051f7"/><stop offset="0.55" stop-color="#8a51f7"/><stop offset="0.65" stop-color="#5c36fa"/><stop offset="0.76" stop-color="#341ffc"/><stop offset="0.85" stop-color="#180efe"/><stop offset="0.94" stop-color="#0604ff"/><stop offset="1" stop-color="blue"/></linearGradient><linearGradient id="未命名的渐变_100" x1="20" y1="20.26" x2="20" y2="9.83" gradientUnits="userSpaceOnUse"><stop offset="0" stop-color="#3bfff7"/><stop offset="1" stop-color="#0002f7"/></linearGradient><linearGradient id="未命名的渐变_220" x1="20" y1="5.04" x2="20" y2="28.08" gradientUnits="userSpaceOnUse"><stop offset="0.03" stop-color="#f2ff39"/><stop offset="0.18" stop-color="#f2cb39"/><stop offset="1" stop-color="#ff26f7"/></linearGradient><linearGradient id="未命名的渐变_100-2" x1="20" y1="14.65" x2="20" y2="-1.52" xlink:href="#未命名的渐变_100"/></defs><title>下载</title><g id="图层_2" data-name="图层 2"><g id="图层_1-2" data-name="图层 1"><rect class="cls-1" width="40" height="40"/><path class="cls-2" d="M20,37.43c-7.46,0-15.49-2.07-15.49-6.61s8-6.61,15.49-6.61,15.49,2.07,15.49,6.61S27.46,37.43,20,37.43ZM8.56,30.82c.65.84,4.55,2.61,11.44,2.61s10.79-1.77,11.44-2.61C30.79,30,26.89,28.21,20,28.21S9.21,30,8.56,30.82Z"/><ellipse class="cls-3" cx="20" cy="15.82" rx="11.65" ry="3.98"/><path class="cls-4" d="M26,21.8h-2.8V6.29a1.34,1.34,0,0,0-1.34-1.34H18.17a1.34,1.34,0,0,0-1.34,1.34V21.8H14A.75.75,0,0,0,13.41,23l6,8.54a.75.75,0,0,0,1.22,0l6-8.54A.75.75,0,0,0,26,21.8Z"/><path class="cls-5" d="M20,12.85c-6.31,0-12.71-1.73-12.71-5,0-1.78,1.87-3.25,5.27-4.16a1.06,1.06,0,0,1,.55,2c-2.69.72-3.7,1.68-3.7,2.11,0,1,3.74,2.92,10.59,2.92S30.59,8.8,30.59,7.81c0-.49-1.17-1.54-4.31-2.27a1.06,1.06,0,0,1,.48-2.06c3.84.89,6,2.43,6,4.33C32.71,11.12,26.31,12.85,20,12.85Z"/></g></g></svg>