<svg xmlns="http://www.w3.org/2000/svg" viewBox="0 0 20 20"><defs><style>.cls-1,.cls-2{fill:none;}.cls-1{stroke:#000;stroke-miterlimit:10;stroke-width:1.4px;}</style></defs><title>下载</title><g id="图层_2" data-name="图层 2"><g id="图层_1-2" data-name="图层 1"><path d="M17,17.42H3a.7.7,0,0,1-.7-.7V12.21a.7.7,0,0,1,1.4,0V16H16.3V12.21a.7.7,0,1,1,1.4,0v4.52A.7.7,0,0,1,17,17.42Z"/><path class="cls-1" d="M17.75,11.21"/><path class="cls-1" d="M2.25,11.21"/><path d="M10,12.54a.7.7,0,0,1-.5-.21l-4-4a.7.7,0,0,1,1-1L10,10.85l3.5-3.51a.7.7,0,0,1,1,1l-4,4A.7.7,0,0,1,10,12.54Z"/><path d="M10,12.54a.7.7,0,0,1-.7-.7v-9a.7.7,0,1,1,1.4,0v9A.7.7,0,0,1,10,12.54Z"/><rect class="cls-2" width="20" height="20"/></g></g></svg>