<svg xmlns="http://www.w3.org/2000/svg" viewBox="0 0 20 20"><defs><style>.cls-1{fill:none;}</style></defs><title>展开</title><g id="图层_2" data-name="图层 2"><g id="图层_1-2" data-name="图层 1"><path d="M15.5,2H4.5A2.48,2.48,0,0,0,2,4.5v11A2.48,2.48,0,0,0,4.5,18h11A2.48,2.48,0,0,0,18,15.5V4.5A2.48,2.48,0,0,0,15.5,2ZM17,15.5A1.47,1.47,0,0,1,15.5,17H4.5A1.47,1.47,0,0,1,3,15.5V4.5A1.47,1.47,0,0,1,4.5,3h11A1.47,1.47,0,0,1,17,4.5Z"/><path d="M14,9.5H10.5V6a.5.5,0,0,0-1,0V9.5H6a.5.5,0,0,0,0,1H9.5V14a.5.5,0,0,0,1,0V10.5H14a.5.5,0,0,0,0-1Z"/><rect class="cls-1" width="20" height="20"/></g></g></svg>