<svg xmlns="http://www.w3.org/2000/svg" viewBox="0 0 20 20"><defs><style>.cls-1,.cls-2,.cls-3{fill:none;}.cls-1,.cls-2{stroke:#000;}.cls-1{stroke-linecap:round;stroke-linejoin:round;}.cls-2{stroke-miterlimit:10;stroke-width:0.95px;}</style></defs><title>文件</title><g id="图层_2" data-name="图层 2"><g id="图层_1-2" data-name="图层 1"><path d="M15.85,9.41H12.93a2.51,2.51,0,0,1-2.42-2.59V3.63a.5.5,0,0,1,1,0V6.82a1.51,1.51,0,0,0,1.42,1.59h2.92a.5.5,0,1,1,0,1Z"/><path class="cls-1" d="M12.84,2.82"/><path class="cls-2" d="M11.66,3.18"/><path d="M14.12,17.63H5.88a2.42,2.42,0,0,1-2.33-2.5V5.22a2.42,2.42,0,0,1,2.33-2.5h5.87l4.71,5.86v6.56A2.42,2.42,0,0,1,14.12,17.63Zm-8.25-14A1.51,1.51,0,0,0,4.46,5.22v9.92a1.51,1.51,0,0,0,1.42,1.59h8.25a1.51,1.51,0,0,0,1.42-1.59V8.9L11.31,3.63Z"/><path class="cls-2" d="M16.53,8.74"/><rect class="cls-3" width="20" height="20"/></g></g></svg>