<svg xmlns="http://www.w3.org/2000/svg" xmlns:xlink="http://www.w3.org/1999/xlink" viewBox="0 0 40 40"><defs><style>.cls-1{fill:none;}.cls-2{fill:url(#未命名的渐变_100);}.cls-3{opacity:0.5;fill:url(#未命名的渐变_151);}.cls-4{fill:url(#未命名的渐变_195);}.cls-5{fill:url(#未命名的渐变_213);}.cls-6{fill:#fff;}</style><linearGradient id="未命名的渐变_100" x1="20" y1="5.31" x2="20" y2="20.06" gradientUnits="userSpaceOnUse"><stop offset="0" stop-color="#3bfff7"/><stop offset="1" stop-color="#0002f7"/></linearGradient><linearGradient id="未命名的渐变_151" x1="20" y1="13.19" x2="20" y2="29.59" gradientUnits="userSpaceOnUse"><stop offset="0" stop-color="#fff100"/><stop offset="0.32" stop-color="#d651f7"/><stop offset="0.37" stop-color="#be51f7"/><stop offset="0.44" stop-color="#a251f7"/><stop offset="0.5" stop-color="#9051f7"/><stop offset="0.55" stop-color="#8a51f7"/><stop offset="0.65" stop-color="#5c36fa"/><stop offset="0.76" stop-color="#341ffc"/><stop offset="0.85" stop-color="#180efe"/><stop offset="0.94" stop-color="#0604ff"/><stop offset="1" stop-color="blue"/></linearGradient><linearGradient id="未命名的渐变_195" x1="20" y1="16.24" x2="20" y2="34.7" gradientUnits="userSpaceOnUse"><stop offset="0" stop-color="#f2cb39"/><stop offset="1" stop-color="#ff26f7"/></linearGradient><linearGradient id="未命名的渐变_213" x1="13" y1="25.25" x2="27" y2="25.25" gradientUnits="userSpaceOnUse"><stop offset="0" stop-color="#f24f39"/><stop offset="1" stop-color="#9a26f7"/></linearGradient></defs><title>我的文件</title><g id="图层_2" data-name="图层 2"><g id="图层_1-2" data-name="图层 1"><rect class="cls-1" width="40" height="40"/><path class="cls-2" d="M31,17.91H9V7.54a1.57,1.57,0,0,1,1.49-1.63h5.11a1.44,1.44,0,0,1,1.12.56l1.48,1.84H29.51A1.57,1.57,0,0,1,31,9.94Z"/><path class="cls-3" d="M29,29.06H11a1.89,1.89,0,0,1-1.83-1.59L7,15.36a1.92,1.92,0,0,1,1.83-2.3H31.14A1.92,1.92,0,0,1,33,15.36L30.83,27.47A1.89,1.89,0,0,1,29,29.06Z"/><path class="cls-4" d="M30.39,34.09H9.61A2.16,2.16,0,0,1,7.5,32.3L5,18.68a2.18,2.18,0,0,1,2.11-2.59H32.85A2.18,2.18,0,0,1,35,18.68L32.5,32.3A2.16,2.16,0,0,1,30.39,34.09Z"/><path class="cls-5" d="M26,26.29H14a1,1,0,0,1,0-2.09H26a1,1,0,0,1,0,2.09Z"/><path class="cls-6" d="M26,25.25H14a1,1,0,0,1,0-2.09H26a1,1,0,0,1,0,2.09Z"/></g></g></svg>