<svg xmlns="http://www.w3.org/2000/svg" viewBox="0 0 20 20"><defs><style>.cls-1,.cls-2{fill:none;}.cls-1{stroke:#000;stroke-miterlimit:10;stroke-width:1.37px;}</style></defs><title>打开文件</title><g id="图层_2" data-name="图层 2"><g id="图层_1-2" data-name="图层 1"><path d="M5.92,18.19H3.42A1.86,1.86,0,0,1,1.6,16.3V3.7A1.86,1.86,0,0,1,3.42,1.81H6.6a1.78,1.78,0,0,1,1.26.52l2.28,1.83a.49.49,0,0,0,.34.17h4.65a1.86,1.86,0,0,1,1.82,1.89V9H15.58V6.23a.48.48,0,0,0-.45-.51H10.48a1.78,1.78,0,0,1-1.26-.52L6.94,3.36a.49.49,0,0,0-.34-.17H3.42A.48.48,0,0,0,3,3.7V16.3a.48.48,0,0,0,.45.51h2.5Z"/><path class="cls-1" d="M17.35,16.3"/><path class="cls-1" d="M17.35,6.23"/><path d="M15.71,18.19h-12a1.72,1.72,0,0,1-1.33-.6,1.62,1.62,0,0,1-.34-1.33L3.24,9.91A2.14,2.14,0,0,1,5.32,8.23h12a1.71,1.71,0,0,1,1.33.59,1.62,1.62,0,0,1,.34,1.33l-1.16,6.35A2.14,2.14,0,0,1,15.71,18.19ZM5.32,9.6a.77.77,0,0,0-.72.56L3.43,16.51a.24.24,0,0,0,0,.21.35.35,0,0,0,.28.1h12a.77.77,0,0,0,.72-.56l1.16-6.35a.24.24,0,0,0,0-.21.35.35,0,0,0-.27-.1Z"/><path d="M15.07,13.35H8.83a.69.69,0,0,1,0-1.37h6.24a.69.69,0,0,1,0,1.37Z"/><rect class="cls-2" width="20" height="20"/></g></g></svg>