<svg xmlns="http://www.w3.org/2000/svg" viewBox="0 0 20 20"><defs><style>.cls-1{fill:none;}</style></defs><title>保存</title><g id="图层_2" data-name="图层 2"><g id="图层_1-2" data-name="图层 1"><path d="M18,18.72H2A.72.72,0,0,1,1.28,18V2A.72.72,0,0,1,2,1.28H14.33a.72.72,0,0,1,.49.19l3.67,3.44a.72.72,0,0,1,.23.52V18A.72.72,0,0,1,18,18.72ZM2.72,17.28H17.28V5.76L14,2.72H2.72Z"/><path d="M12.17,8.94h-6A1.87,1.87,0,0,1,4.45,7V2.09H5.88V7c0,.3.17.53.33.53h6c.15,0,.33-.23.33-.53V2.09h1.44V7A1.87,1.87,0,0,1,12.17,8.94Z"/><path d="M15.26,18H13.82V13.36a.48.48,0,0,0-.5-.46H6.38a.48.48,0,0,0-.5.46V18H4.45V13.36a1.92,1.92,0,0,1,1.93-1.9h6.94a1.92,1.92,0,0,1,1.93,1.9Z"/><path d="M9.85,6.32a.72.72,0,0,1-.72-.72V4.34a.72.72,0,0,1,1.44,0V5.6A.72.72,0,0,1,9.85,6.32Z"/><rect class="cls-1" width="20" height="20"/></g></g></svg>