<svg xmlns="http://www.w3.org/2000/svg" xmlns:xlink="http://www.w3.org/1999/xlink" viewBox="0 0 40 40"><defs><style>.cls-1{fill:none;}.cls-2{fill:url(#未命名的渐变_130);}.cls-3{fill:url(#未命名的渐变_121);}.cls-4{fill:url(#未命名的渐变_151);}.cls-5{fill:url(#未命名的渐变_39);}.cls-6{fill:url(#未命名的渐变_100);}</style><linearGradient id="未命名的渐变_130" x1="13.1" y1="22.13" x2="24.37" y2="22.13" gradientUnits="userSpaceOnUse"><stop offset="0" stop-color="#1becce"/><stop offset="1" stop-color="#c79546"/></linearGradient><linearGradient id="未命名的渐变_121" x1="34.13" y1="10.74" x2="3.7" y2="34.5" gradientUnits="userSpaceOnUse"><stop offset="0" stop-color="#518bf8"/><stop offset="0.2" stop-color="#5051f7"/><stop offset="0.24" stop-color="#4a48f7"/><stop offset="0.39" stop-color="#362cf7"/><stop offset="0.52" stop-color="#291af7"/><stop offset="0.61" stop-color="#2514f7"/><stop offset="0.74" stop-color="#140be3"/><stop offset="0.89" stop-color="#0503d1"/><stop offset="1" stop-color="#0000cb"/></linearGradient><linearGradient id="未命名的渐变_151" x1="33.35" y1="8.92" x2="1.46" y2="33.82" gradientUnits="userSpaceOnUse"><stop offset="0" stop-color="#fff100"/><stop offset="0.32" stop-color="#d651f7"/><stop offset="0.37" stop-color="#be51f7"/><stop offset="0.44" stop-color="#a251f7"/><stop offset="0.5" stop-color="#9051f7"/><stop offset="0.55" stop-color="#8a51f7"/><stop offset="0.65" stop-color="#5c36fa"/><stop offset="0.76" stop-color="#341ffc"/><stop offset="0.85" stop-color="#180efe"/><stop offset="0.94" stop-color="#0604ff"/><stop offset="1" stop-color="blue"/></linearGradient><linearGradient id="未命名的渐变_39" x1="12.42" y1="22.48" x2="23.69" y2="22.48" gradientUnits="userSpaceOnUse"><stop offset="0" stop-color="#89eca2"/><stop offset="1" stop-color="#f2d646"/></linearGradient><linearGradient id="未命名的渐变_100" x1="1.8" y1="36.91" x2="17.6" y2="25.55" gradientUnits="userSpaceOnUse"><stop offset="0" stop-color="#3bfff7"/><stop offset="1" stop-color="#0002f7"/></linearGradient></defs><title>搜索</title><g id="图层_2" data-name="图层 2"><g id="图层_1-2" data-name="图层 1"><rect class="cls-1" width="40" height="40"/><path class="cls-2" d="M23,27.43c-5.46,0-9.91-4.18-9.91-9.32a1.37,1.37,0,0,1,2.73,0A7,7,0,0,0,23,24.86a1.29,1.29,0,1,1,0,2.57Z"/><path class="cls-3" d="M22,34.56A14.32,14.32,0,1,1,36.29,20.24,14.34,14.34,0,0,1,22,34.56ZM22,9.82A10.42,10.42,0,1,0,32.38,20.24,10.43,10.43,0,0,0,22,9.82Z"/><path class="cls-4" d="M20.6,33.88a15,15,0,1,1,15-15A15,15,0,0,1,20.6,33.88ZM20.6,8A10.91,10.91,0,1,0,31.51,18.87,10.92,10.92,0,0,0,20.6,8Z"/><path class="cls-5" d="M22.33,28.11a9.92,9.92,0,0,1-9.91-9.91,1.36,1.36,0,0,1,2.73,0,7.19,7.19,0,0,0,7.18,7.18,1.36,1.36,0,0,1,0,2.73Z"/><path class="cls-6" d="M5.26,37.63a2,2,0,0,1-1.52-3.41l5.8-6.48a2,2,0,0,1,3,2.73l-5.8,6.48A2,2,0,0,1,5.26,37.63Z"/></g></g></svg>